<svg width="60" height="60" viewBox="0 0 60 60" fill="none" xmlns="http://www.w3.org/2000/svg">
<path d="M20.439 28.836C21.81 27.696 23.193 27.696 24.597 28.869L24.921 29.163L39.879 44.121L40.161 44.37C40.7382 44.8174 41.4589 45.0389 42.1878 44.9929C42.9167 44.947 43.6038 44.6366 44.1202 44.1202C44.6366 43.6038 44.947 42.9167 44.9929 42.1878C45.0389 41.4589 44.8174 40.7382 44.37 40.161L44.121 39.879L40.245 36L41.121 35.121L41.439 34.836C42.81 33.696 44.193 33.696 45.597 34.869L45.921 35.163L59.943 49.188C59.659 52.0448 58.3602 54.7051 56.2823 56.6862C54.2044 58.6672 51.4851 59.8376 48.618 59.985L48 60H12C9.02373 59.9998 6.15372 58.8936 3.94727 56.8962C1.74083 54.8987 0.355395 52.1526 0.0599999 49.191L20.121 29.121L20.439 28.836ZM48 0C51.0787 -2.40826e-06 54.0397 1.18331 56.2704 3.30517C58.5012 5.42704 59.8311 8.32512 59.985 11.4L60 12V40.755L50.121 30.879L49.671 30.468C45.903 27.183 41.121 27.177 37.383 30.417L36.921 30.837L36 31.755L29.121 24.879L28.671 24.468C24.903 21.183 20.121 21.177 16.383 24.417L15.921 24.837L0 40.755V12C-2.40826e-06 8.92127 1.18331 5.96031 3.30517 3.72956C5.42704 1.49881 8.32512 0.168937 11.4 0.0150003L12 0H48ZM39.03 15L38.649 15.021C37.9199 15.1077 37.2478 15.4589 36.7602 16.0079C36.2726 16.5569 36.0033 17.2657 36.0033 18C36.0033 18.7343 36.2726 19.4431 36.7602 19.9921C37.2478 20.5411 37.9199 20.8923 38.649 20.979L39 21L39.381 20.979C40.1101 20.8923 40.7822 20.5411 41.2698 19.9921C41.7574 19.4431 42.0267 18.7343 42.0267 18C42.0267 17.2657 41.7574 16.5569 41.2698 16.0079C40.7822 15.4589 40.1101 15.1077 39.381 15.021L39.03 15Z" fill="#C5C5C5"/>
</svg>
