<svg width="127" height="25" viewBox="0 0 127 25" fill="none" xmlns="http://www.w3.org/2000/svg">
<path d="M15.6136 8.40909C15.5152 8.00758 15.3598 7.6553 15.1477 7.35227C14.9356 7.04167 14.6705 6.7803 14.3523 6.56818C14.0417 6.34848 13.678 6.18561 13.2614 6.07954C12.8523 5.96591 12.4015 5.90909 11.9091 5.90909C10.8485 5.90909 9.94318 6.16288 9.19318 6.67045C8.45076 7.17803 7.88258 7.90909 7.48864 8.86364C7.10227 9.81818 6.90909 10.9697 6.90909 12.3182C6.90909 13.6818 7.0947 14.8485 7.46591 15.8182C7.83712 16.7879 8.39015 17.5303 9.125 18.0455C9.85985 18.5606 10.7727 18.8182 11.8636 18.8182C12.8258 18.8182 13.625 18.678 14.2614 18.3977C14.9053 18.1174 15.3864 17.7197 15.7045 17.2045C16.0227 16.6894 16.1818 16.0833 16.1818 15.3864L17.2727 15.5H11.9545V11H22.2727V14.2273C22.2727 16.3485 21.822 18.1629 20.9205 19.6705C20.0265 21.1705 18.7917 22.322 17.2159 23.125C15.6477 23.9205 13.8485 24.3182 11.8182 24.3182C9.55303 24.3182 7.56439 23.8371 5.85227 22.875C4.14015 21.9129 2.80303 20.5417 1.84091 18.7614C0.886364 16.9811 0.409091 14.8636 0.409091 12.4091C0.409091 10.4848 0.700758 8.7803 1.28409 7.29545C1.875 5.81061 2.69318 4.55682 3.73864 3.53409C4.78409 2.50379 5.99242 1.72727 7.36364 1.20454C8.73485 0.674241 10.2045 0.40909 11.7727 0.40909C13.1515 0.40909 14.4318 0.60606 15.6136 1C16.803 1.38636 17.8523 1.93939 18.7614 2.65909C19.678 3.37121 20.4167 4.21591 20.9773 5.19318C21.5379 6.17045 21.8788 7.24242 22 8.40909H15.6136ZM25.2188 24V0.727272H35.2642C36.9915 0.727272 38.5028 1.04167 39.7983 1.67045C41.0938 2.29924 42.1013 3.20455 42.821 4.38636C43.5407 5.56818 43.9006 6.98485 43.9006 8.63636C43.9006 10.303 43.5294 11.7083 42.7869 12.8523C42.0521 13.9962 41.018 14.8598 39.6847 15.4432C38.3589 16.0265 36.8097 16.3182 35.0369 16.3182H29.0369V11.4091H33.7642C34.5066 11.4091 35.1392 11.3182 35.6619 11.1364C36.1922 10.947 36.5975 10.6477 36.8778 10.2386C37.1657 9.82955 37.3097 9.29545 37.3097 8.63636C37.3097 7.9697 37.1657 7.42803 36.8778 7.01136C36.5975 6.58712 36.1922 6.27651 35.6619 6.07954C35.1392 5.875 34.5066 5.77273 33.7642 5.77273H31.5369V24H25.2188ZM38.8551 13.3182L44.6733 24H37.8097L32.1278 13.3182H38.8551ZM52.9119 0.727272V24H46.5938V0.727272H52.9119ZM76.0426 0.727272V24H70.7699L62.3608 11.7727H62.2244V24H55.9062V0.727272H61.2699L69.5426 12.9091H69.7244V0.727272H76.0426ZM94.1449 8.40909C94.0464 8.00758 93.8911 7.6553 93.679 7.35227C93.4669 7.04167 93.2017 6.7803 92.8835 6.56818C92.5729 6.34848 92.2093 6.18561 91.7926 6.07954C91.3835 5.96591 90.9328 5.90909 90.4403 5.90909C89.3797 5.90909 88.4744 6.16288 87.7244 6.67045C86.982 7.17803 86.4138 7.90909 86.0199 8.86364C85.6335 9.81818 85.4403 10.9697 85.4403 12.3182C85.4403 13.6818 85.6259 14.8485 85.9972 15.8182C86.3684 16.7879 86.9214 17.5303 87.6562 18.0455C88.3911 18.5606 89.304 18.8182 90.3949 18.8182C91.357 18.8182 92.1563 18.678 92.7926 18.3977C93.4366 18.1174 93.9176 17.7197 94.2358 17.2045C94.554 16.6894 94.7131 16.0833 94.7131 15.3864L95.804 15.5H90.4858V11H100.804V14.2273C100.804 16.3485 100.353 18.1629 99.4517 19.6705C98.5578 21.1705 97.3229 22.322 95.7472 23.125C94.179 23.9205 92.3797 24.3182 90.3494 24.3182C88.0843 24.3182 86.0956 23.8371 84.3835 22.875C82.6714 21.9129 81.3343 20.5417 80.3722 18.7614C79.4176 16.9811 78.9403 14.8636 78.9403 12.4091C78.9403 10.4848 79.232 8.7803 79.8153 7.29545C80.4063 5.81061 81.2244 4.55682 82.2699 3.53409C83.3153 2.50379 84.5237 1.72727 85.8949 1.20454C87.2661 0.674241 88.7358 0.40909 90.304 0.40909C91.6828 0.40909 92.9631 0.60606 94.1449 1C95.3343 1.38636 96.3835 1.93939 97.2926 2.65909C98.2093 3.37121 98.9479 4.21591 99.5085 5.19318C100.069 6.17045 100.41 7.24242 100.531 8.40909H94.1449ZM126.295 12.3636C126.295 14.9545 125.792 17.1402 124.784 18.9205C123.777 20.6932 122.417 22.0379 120.705 22.9545C118.992 23.8636 117.083 24.3182 114.977 24.3182C112.856 24.3182 110.939 23.8598 109.227 22.9432C107.523 22.0189 106.167 20.6705 105.159 18.8977C104.159 17.1174 103.659 14.9394 103.659 12.3636C103.659 9.77273 104.159 7.59091 105.159 5.81818C106.167 4.03788 107.523 2.69318 109.227 1.78409C110.939 0.867423 112.856 0.40909 114.977 0.40909C117.083 0.40909 118.992 0.867423 120.705 1.78409C122.417 2.69318 123.777 4.03788 124.784 5.81818C125.792 7.59091 126.295 9.77273 126.295 12.3636ZM119.795 12.3636C119.795 10.9697 119.61 9.79545 119.239 8.84091C118.875 7.87879 118.333 7.15151 117.614 6.65909C116.902 6.15909 116.023 5.90909 114.977 5.90909C113.932 5.90909 113.049 6.15909 112.33 6.65909C111.617 7.15151 111.076 7.87879 110.705 8.84091C110.341 9.79545 110.159 10.9697 110.159 12.3636C110.159 13.7576 110.341 14.9356 110.705 15.8977C111.076 16.8523 111.617 17.5795 112.33 18.0795C113.049 18.572 113.932 18.8182 114.977 18.8182C116.023 18.8182 116.902 18.572 117.614 18.0795C118.333 17.5795 118.875 16.8523 119.239 15.8977C119.61 14.9356 119.795 13.7576 119.795 12.3636Z" fill="black"/>
</svg>
